<svg width="16" height="16" viewBox="0 0 16 16" fill="none" xmlns="http://www.w3.org/2000/svg">
<rect width="16" height="16" rx="8" fill="white" fill-opacity="0.1"/>
<path fill-rule="evenodd" clip-rule="evenodd" d="M9.44289 5.69999L5.61881 9.3179C5.56948 9.22743 5.525 9.13309 5.48509 9.03523C5.35156 8.70658 5.28479 8.35776 5.28479 7.98938C5.28479 7.62074 5.35156 7.2721 5.48509 6.94345C5.61881 6.61454 5.80397 6.32923 6.04083 6.08707C6.27761 5.84505 6.56221 5.65363 6.89438 5.51267C7.22665 5.37184 7.59132 5.30136 7.98841 5.30136C8.38559 5.30136 8.7523 5.3736 9.08817 5.51823C9.21308 5.57189 9.33129 5.63243 9.44289 5.69999ZM9.10552 10.4876C8.77317 10.6286 8.4085 10.6989 8.01141 10.6989C7.61423 10.6989 7.24752 10.6267 6.91148 10.4822C6.78675 10.4284 6.66853 10.3679 6.55711 10.3001L10.381 6.68245C10.4303 6.77283 10.4748 6.86699 10.5147 6.96503C10.6483 7.29377 10.715 7.6425 10.715 8.01105C10.715 8.37952 10.6483 8.72816 10.5147 9.05699C10.381 9.38572 10.1959 9.67103 9.95899 9.91309C9.72221 10.1551 9.43778 10.3467 9.10552 10.4876ZM9.68407 11.6094C10.1958 11.3998 10.6388 11.1163 11.013 10.7584C11.3872 10.4008 11.6774 9.98348 11.8836 9.50667C12.0899 9.02977 12.193 8.52398 12.193 7.9893C12.193 7.45453 12.0899 6.94874 11.8836 6.47175C11.7613 6.1889 11.6108 5.92775 11.432 5.68807L13.9192 3.33504L12.9309 2.40002L10.4361 4.76023C10.2122 4.61575 9.96903 4.49086 9.70689 4.38543C9.19511 4.17953 8.63003 4.07644 8.01141 4.07644C7.39269 4.07644 6.82762 4.18129 6.31584 4.39084C5.80397 4.60039 5.36098 4.88394 4.98679 5.24162C4.6126 5.59931 4.32227 6.01666 4.11606 6.49351C3.90994 6.9704 3.80679 7.47619 3.80679 8.01096C3.80679 8.54565 3.90994 9.05126 4.11606 9.52834C4.2385 9.81127 4.38904 10.0724 4.56777 10.3122L2.08075 12.665L3.06907 13.6L5.56367 11.2399C5.78758 11.3844 6.03079 11.5093 6.29293 11.6147C6.80471 11.8206 7.36978 11.9236 7.98841 11.9236C8.60713 11.9236 9.17229 11.8187 9.68407 11.6094Z" fill="white"/>
</svg>
