<svg width="14" height="14" viewBox="0 0 14 14" fill="none" xmlns="http://www.w3.org/2000/svg">
<path d="M7 0.416992C8.22064 0.416992 9.41551 0.756103 10.4521 1.39453L10.6572 1.52637C11.6721 2.20445 12.4771 3.15022 12.9844 4.25684L13.082 4.48047C13.5491 5.60809 13.6931 6.842 13.5 8.04395L13.457 8.28418C13.203 9.56122 12.576 10.7346 11.6553 11.6553C10.7921 12.5185 9.70702 13.1237 8.52246 13.4053L8.28418 13.457C7.08709 13.6951 5.84918 13.5948 4.70801 13.1709L4.48047 13.082C3.35269 12.6148 2.37843 11.8441 1.66504 10.8574L1.52637 10.6572C0.803022 9.57462 0.416992 8.30202 0.416992 7C0.416992 5.36294 1.02641 3.78876 2.12012 2.58105L2.34473 2.34473C3.50224 1.18721 5.04657 0.505464 6.67383 0.424805L7 0.416992Z" stroke="#B5B5B5" stroke-width="0.833333"/>
<path fill-rule="evenodd" clip-rule="evenodd" d="M7.00008 1.50317L8.65881 4.25481L10.3175 7.00708L7.00008 8.86272L3.68262 7.00008L5.34135 4.24781L7.00008 1.50317ZM7.00008 9.60408L3.8666 7.74781L7.00008 12.497L10.1336 7.74781L7.00008 9.60408Z" fill="#343434"/>
<path fill-rule="evenodd" clip-rule="evenodd" d="M7 1.50317L8.65873 4.24781L10.3175 7.00008L7 5.60963V1.50317Z" fill="#62688F"/>
<path fill-rule="evenodd" clip-rule="evenodd" d="M7 9.60408L10.1398 7.7478L7 12.504V9.60408Z" fill="#62688F"/>
<path fill-rule="evenodd" clip-rule="evenodd" d="M7 5.60962L10.3175 7.00007L7 8.85571V5.60962Z" fill="#454A75"/>
<path fill-rule="evenodd" clip-rule="evenodd" d="M7.00008 1.50317L5.34135 4.24781L3.68262 7.00008L7.00008 5.60963V1.50317Z" fill="#8A92B2"/>
<path fill-rule="evenodd" clip-rule="evenodd" d="M6.99993 9.60408L3.86646 7.7478L6.99993 12.504V9.60408Z" fill="#8A92B2"/>
<path fill-rule="evenodd" clip-rule="evenodd" d="M7.00008 5.60962L3.68262 7.00007L7.00008 8.85571V5.60962Z" fill="#62688F"/>
</svg>
